<svg width="53" height="11" viewBox="0 0 53 11" fill="none" xmlns="http://www.w3.org/2000/svg">
<path d="M4.98 10.504C4.8 9.472 4.068 8.176 2.676 7.132C1.992 6.616 1.296 6.28 0.612 6.136V5.632C1.968 5.308 3.3 4.396 4.152 3.16C4.584 2.536 4.86 1.924 4.98 1.288H5.484C5.688 2.5 6.624 3.844 7.896 4.744C8.52 5.188 9.168 5.488 9.828 5.632V6.136C8.496 6.412 6.948 7.6 6.18 8.812C5.796 9.424 5.568 9.988 5.484 10.504H4.98ZM15.1694 0.999999V9.778H16.5554V10H13.7114V9.778H14.9354V1.222H13.7114V0.999999H15.1694ZM22.5374 0.999999V1.222H21.2774V10.12H20.9714L15.0074 0.999999H17.2214L21.0494 6.934V1.222H19.6934V0.999999H22.5374ZM24.5987 7.396L29.8787 1.222H28.5947V0.999999H31.4747V1.222H30.1907L24.9107 7.396H24.5987ZM23.0747 10V9.778H24.1547V1.222H23.0747V0.999999H27.2147V1.222H26.0207V9.778H27.0947V10H23.0747ZM27.6947 10V9.778H28.7987L26.3327 5.452L27.5747 4.072L30.9527 9.778H32.0147V10H27.6947ZM34.5865 7.198V6.976H38.2585V7.198H34.5865ZM37.4425 0.826L40.5505 9.778H41.4685V10H37.3465V9.778H38.3965L36.1765 2.926L33.7765 9.778H35.0605V10H32.4145V9.778H33.5185L36.6805 0.826H37.4425ZM44.3822 7.432C44.3822 7.032 44.4142 6.648 44.4782 6.28C44.5462 5.912 44.6522 5.586 44.7962 5.302C44.9442 5.014 45.1322 4.786 45.3602 4.618C45.5882 4.45 45.8642 4.366 46.1882 4.366C46.4642 4.366 46.6962 4.426 46.8842 4.546C47.0762 4.666 47.2202 4.82 47.3162 5.008C47.4162 5.196 47.4662 5.392 47.4662 5.596C47.4662 5.876 47.3742 6.118 47.1902 6.322C47.0062 6.526 46.7682 6.628 46.4762 6.628C46.1802 6.628 45.9382 6.538 45.7502 6.358C45.5662 6.174 45.4742 5.956 45.4742 5.704C45.4742 5.412 45.5662 5.174 45.7502 4.99C45.9382 4.806 46.1782 4.714 46.4702 4.714C46.6582 4.714 46.8262 4.756 46.9742 4.84C47.1222 4.924 47.2382 5.034 47.3222 5.17C47.4102 5.302 47.4542 5.444 47.4542 5.596H47.2322C47.2322 5.42 47.1882 5.256 47.1002 5.104C47.0122 4.948 46.8882 4.824 46.7282 4.732C46.5682 4.636 46.3782 4.588 46.1582 4.588C45.9062 4.588 45.6782 4.662 45.4742 4.81C45.2702 4.958 45.0962 5.164 44.9522 5.428C44.8082 5.692 44.6982 5.996 44.6222 6.34C44.5462 6.684 44.5082 7.048 44.5082 7.432H44.3822ZM44.5082 4.48V9.778H45.4382V10H42.0302V9.778H42.8462V4.702H42.0302V4.48H44.5082ZM50.1139 10.084C49.7259 10.084 49.4279 10.02 49.2199 9.892C49.0159 9.76 48.8759 9.584 48.7999 9.364C48.7239 9.14 48.6859 8.888 48.6859 8.608V3.28C48.9539 3.28 49.2479 3.25 49.5679 3.19C49.8879 3.13 50.1519 3.04 50.3599 2.92V8.806C50.3599 9.106 50.3959 9.318 50.4679 9.442C50.5399 9.566 50.6599 9.628 50.8279 9.628C51.0039 9.628 51.1819 9.552 51.3619 9.4C51.5459 9.248 51.6959 9.042 51.8119 8.782L52.0099 8.878C51.8579 9.234 51.6259 9.524 51.3139 9.748C51.0059 9.972 50.6059 10.084 50.1139 10.084ZM47.8459 4.702V4.48H51.6439V4.702H47.8459Z" fill="#BB3D06"/>
</svg>
